<svg width="20" height="21" viewBox="0 0 20 21" fill="none" xmlns="http://www.w3.org/2000/svg">
<path fill-rule="evenodd" clip-rule="evenodd" d="M7.4184 1.61629C10.0869 1.19933 12.4978 3.2627 12.4978 5.96361C12.4978 6.39501 12.8475 6.74472 13.2789 6.74472C13.7103 6.74472 14.06 6.39501 14.06 5.96361C14.06 2.30375 10.7932 -0.492206 7.17723 0.0727918L5.94472 0.265373C2.52269 0.800065 0 3.74754 0 7.21108V13.97C0 17.8526 3.14743 21 7.02999 21H8.00636C11.3497 21 14.06 18.2897 14.06 14.9464V11.3845C17.4457 11.0497 18.8758 8.99236 19.1238 7.66971C19.2033 7.2457 18.9241 6.83753 18.5 6.75802C18.076 6.67852 17.6679 6.9578 17.5884 7.38181C17.4684 8.02141 16.4911 9.86909 13.0836 9.86909C8.97823 9.86909 7.11245 12.3149 6.68494 13.5119C6.53984 13.9182 6.75156 14.3652 7.15783 14.5102C7.56409 14.6553 8.01105 14.4436 8.15615 14.0374C8.36622 13.4492 9.53763 11.663 12.4978 11.4518V14.9464C12.4978 17.4269 10.4869 19.4378 8.00636 19.4378H7.02999C4.01022 19.4378 1.56222 16.9898 1.56222 13.97V7.21108C1.56222 4.51722 3.52432 2.22474 6.18589 1.80887L7.4184 1.61629Z" fill="white"/>
</svg>
