<?xml version="1.0" standalone="no"?>
<!DOCTYPE svg PUBLIC "-//W3C//DTD SVG 20010904//EN"
 "http://www.w3.org/TR/2001/REC-SVG-20010904/DTD/svg10.dtd">
<svg version="1.0" xmlns="http://www.w3.org/2000/svg"
 width="700.000000pt" height="700.000000pt" viewBox="0 0 700.000000 700.000000"
 preserveAspectRatio="xMidYMid meet">
<metadata>
Created by potrace 1.11, written by Peter Selinger 2001-2013
</metadata>
<g transform="translate(0.000000,700.000000) scale(0.100000,-0.100000)"
fill="#000000" stroke="none">
<path d="M6310 6991 c0 -4 -35 -80 -77 -167 -43 -88 -78 -161 -78 -164 -1 -3
-25 -53 -53 -112 -57 -119 -110 -230 -242 -508 -48 -102 -114 -239 -145 -305
-89 -186 -154 -323 -195 -410 -21 -44 -66 -138 -100 -210 -97 -203 -159 -333
-203 -425 -22 -47 -77 -163 -123 -259 -46 -95 -84 -175 -84 -177 0 -2 -43 -92
-95 -200 -52 -108 -95 -198 -95 -200 0 -1 -41 -87 -91 -191 -50 -103 -100
-208 -111 -232 -11 -23 -60 -126 -109 -228 -49 -102 -89 -186 -89 -188 0 -2
-39 -84 -86 -182 -47 -98 -101 -209 -119 -248 -99 -212 -115 -246 -115 -249 0
-1 153 -3 340 -3 l339 0 20 41 c10 23 44 93 74 156 30 63 80 169 112 235 31
66 74 156 95 200 78 165 129 274 187 395 33 69 77 160 97 202 20 43 66 140
102 215 37 76 104 217 149 313 117 247 184 387 247 520 59 122 123 257 193
405 57 121 236 494 274 573 17 34 31 64 31 66 0 3 45 97 100 211 55 114 100
208 100 210 0 1 45 96 100 210 55 114 100 208 100 210 0 2 37 79 81 172 45 92
98 205 120 251 l38 82 -345 0 c-189 0 -344 -4 -344 -9z"/>
<path d="M1684 5832 c-15 -2 -32 -27 -64 -95 -24 -51 -79 -166 -123 -257 -43
-91 -97 -203 -119 -250 -22 -47 -57 -121 -78 -165 -21 -44 -68 -143 -105 -220
-37 -77 -80 -167 -95 -200 -15 -33 -64 -136 -109 -229 -45 -93 -81 -170 -81
-171 0 -1 -41 -87 -91 -191 -50 -104 -106 -220 -124 -259 -44 -93 -116 -245
-209 -439 -42 -87 -76 -160 -76 -161 0 -2 -36 -79 -81 -171 -44 -93 -96 -200
-114 -239 -18 -38 -72 -150 -119 -249 -47 -98 -86 -184 -86 -191 0 -9 75 -12
336 -12 l337 1 67 140 c37 78 85 179 108 226 22 47 66 139 97 205 32 66 79
165 105 220 26 55 71 150 100 210 29 61 69 146 90 190 21 44 66 139 100 210
34 72 82 171 105 220 24 50 68 144 100 210 31 66 73 154 92 195 19 41 67 140
105 220 39 80 87 181 108 225 21 44 60 127 88 185 27 58 70 150 96 205 26 55
51 108 56 117 10 19 175 364 218 458 14 30 24 57 23 59 -1 5 -624 8 -657 3z"/>
<path d="M3030 5825 c-5 -6 -33 -62 -63 -125 -30 -63 -80 -169 -112 -235 -31
-66 -74 -156 -95 -200 -35 -74 -58 -122 -192 -405 -28 -58 -70 -145 -93 -195
-23 -49 -70 -146 -102 -215 -33 -69 -74 -154 -91 -190 -16 -36 -60 -128 -97
-205 -85 -178 -135 -284 -135 -289 0 -2 31 -68 69 -147 38 -79 99 -207 136
-284 36 -77 80 -170 97 -207 17 -38 34 -68 38 -68 3 0 17 24 30 53 13 28 57
122 98 207 41 85 94 198 119 250 25 52 62 131 83 175 21 44 60 125 86 180 26
55 85 178 130 274 46 95 84 175 84 176 0 2 43 92 95 200 52 108 95 198 95 199
0 2 40 86 89 187 48 101 97 204 109 229 11 25 61 130 111 233 50 104 91 190
91 192 0 3 23 50 50 106 28 56 48 104 45 107 -10 11 -667 7 -675 -3z"/>
<path d="M4409 5832 c-8 -1 -30 -35 -49 -75 -40 -85 -134 -284 -215 -452 -31
-66 -98 -205 -147 -310 -50 -104 -115 -242 -145 -305 -71 -148 -145 -304 -193
-405 -21 -44 -74 -156 -119 -249 -44 -92 -81 -170 -81 -171 0 -1 -33 -72 -74
-156 -72 -151 -114 -239 -224 -469 -30 -63 -81 -171 -114 -240 -33 -69 -95
-199 -138 -290 -43 -91 -108 -228 -145 -305 -37 -77 -84 -176 -105 -220 -21
-44 -61 -129 -90 -190 -29 -60 -69 -146 -90 -190 -21 -44 -65 -136 -98 -205
-92 -192 -160 -336 -209 -440 -25 -52 -68 -142 -95 -200 -28 -58 -72 -150 -98
-205 -26 -55 -69 -145 -95 -200 -26 -55 -71 -149 -100 -210 -29 -60 -74 -155
-100 -210 -26 -55 -51 -108 -57 -117 -8 -17 11 -18 334 -17 l343 0 53 112 c28
62 88 189 133 282 44 94 96 202 114 240 18 39 61 129 95 200 35 72 79 166 100
210 21 44 66 139 100 210 34 72 75 157 90 190 15 33 58 123 95 200 146 303
178 372 205 430 15 33 59 125 97 205 39 80 82 170 96 200 14 30 68 144 121
254 53 109 96 200 96 201 0 2 35 77 79 167 43 89 90 188 104 218 14 30 66 140
116 243 50 104 91 190 91 191 0 2 35 77 79 167 156 325 221 461 221 464 0 2
39 83 86 181 83 174 112 235 207 434 57 122 130 276 197 415 29 61 77 162 107
225 29 63 60 127 68 142 31 55 41 53 -308 53 -178 0 -330 -1 -338 -3z"/>
<path d="M1686 3009 c-18 -41 -80 -170 -216 -454 -58 -122 -100 -213 -100
-219 0 -2 153 -3 339 -3 l339 1 -16 35 c-10 20 -38 79 -63 131 -25 52 -66 137
-90 189 -24 52 -73 155 -109 229 l-65 134 -19 -43z"/>
<path d="M5738 2913 c-121 -250 -220 -457 -248 -519 l-28 -61 339 0 c186 0
339 2 339 4 0 2 -16 39 -36 81 -20 42 -53 113 -74 157 -21 44 -75 159 -122
255 -46 96 -88 185 -94 198 -8 21 -16 9 -76 -115z"/>
</g>
</svg>
