<svg width="22" height="22" viewBox="0 0 22 22" fill="none" xmlns="http://www.w3.org/2000/svg">
<path fill-rule="evenodd" clip-rule="evenodd" d="M9.76136 4.25526C11.8338 3.93143 13.7061 5.53391 13.7061 7.63152C13.7061 7.96656 13.9777 8.23816 14.3128 8.23816C14.6478 8.23816 14.9194 7.96656 14.9194 7.63152C14.9194 4.78916 12.3823 2.61774 9.57406 3.05653L8.61685 3.2061C5.9592 3.62136 4 5.91045 4 8.60035V13.8495C4 16.8648 6.44439 19.3092 9.4597 19.3092H10.218C12.8145 19.3092 14.9194 17.2043 14.9194 14.6078V11.8417C17.5488 11.5816 18.6595 9.98383 18.8521 8.95662C18.9138 8.62733 18.697 8.31033 18.3677 8.24858C18.0384 8.18684 17.7214 8.40374 17.6596 8.73303C17.5665 9.22977 16.8074 10.6647 14.1611 10.6647C10.9727 10.6647 9.5237 12.5642 9.19168 13.4939C9.079 13.8094 9.24342 14.1565 9.55894 14.2692C9.87446 14.3819 10.2216 14.2175 10.3343 13.9019C10.4974 13.4451 11.4072 12.0579 13.7061 11.8939V14.6078C13.7061 16.5343 12.1444 18.096 10.218 18.096H9.4597C7.11446 18.096 5.21327 16.1948 5.21327 13.8495V8.60035C5.21327 6.50821 6.73709 4.7278 8.80415 4.40482L9.76136 4.25526Z" fill="white"/>
</svg>
